<svg xmlns="http://www.w3.org/2000/svg" viewBox="0 0 24 24" fill="#F38020">
  <path d="M19.5 12.5c-.3-1.2-1.3-2-2.5-2H7.8c-.5 0-.8-.3-.7-.7.1-.4.5-.6.9-.6h9.2c.4 0 .7-.3.8-.7.1-.4-.2-.8-.6-.9-.1 0-.2 0-.3-.1h-8c-2.5 0-4.5 1.8-5 4.2-.4 2 .4 3.9 2 5 .2.1.4.3.6.3h9.5c1.3 0 2.5-.9 2.8-2.2.3-1.3-.4-2.5-1.7-3-.1 0-.2-.1-.3-.1z"/>
  <path d="M16.5 6.8c-.1-.2-.2-.4-.3-.5-1-1.4-2.8-2.2-4.6-2-1.6.1-3 1-3.8 2.4-.2.4-.1.8.2 1 .3.2.7.2 1 0 .6-.5 1.3-.8 2-.9 1.1-.2 2.2.1 3.1.7.3.2.7.2 1-.1.3-.3.4-.6.4-.6z"/>
  <path d="M19 10c-.3-.2-.7-.2-1 0-.6.5-1.3.8-2.1.9h-8c-.5 0-.9.4-1 .9-.1.5.3 1 .8 1h9c1.2 0 2.3.6 2.8 1.6.2.3.6.5.9.3.3-.2.4-.5.4-.9-.1-1.2-.7-2.2-1.8-2.8z"/>
</svg>
