<svg xmlns="http://www.w3.org/2000/svg" viewBox="0 0 24 24" fill="#F7DF1E">
  <rect x="3" y="3" width="18" height="18" rx="2"/>
  <path d="M15 10.5c-.5 0-1 .3-1.3.7l-1.2-.6c.5-.8 1.4-1.4 2.5-1.4 1.5 0 2.5.8 2.5 2.2 0 .7-.3 1.3-.8 1.7l-.2.2c-.4.3-.7.5-.7 1h-1.5c0-.8.3-1.3.8-1.7l.2-.2c.3-.2.5-.5.5-.8 0-.6-.4-.9-1-.9-.4 0-.8.2-1 .5l-1.2-.6.1-.1c.4-.7 1.2-1.2 2.1-1.2 1.4 0 2.4.7 2.4 1.9h-1.2zM9.5 11c0 .4.3.7.7.7s.7-.3.7-.7-.3-.7-.7-.7-.7.3-.7.7zm0 3c0 .4.3.7.7.7s.7-.3.7-.7-.3-.7-.7-.7-.7.3-.7.7z" fill="black"/>
</svg>
